<svg xmlns="http://www.w3.org/2000/svg" xml:space="preserve" width="800" height="800" viewBox="0 0 464.804 464.803"><path d="M369.395 194.2c-2.697-3.803-5.502-7.512-8.491-11.07l.092.016c-3.182-15.236-20.201-35.209-20.201-35.209s.252 8.235.128 15.2c-1.423-1.212-2.897-2.373-4.368-3.535l-.023-.134c-5.727-35.253-35.955-56.857-35.955-56.857 5.113 5.118 5.851 24.85 0 16.812-5.851-8.037-32.896-43.138-24.854-21.244 8.043 21.896-10.972 2.405-10.972 2.405s-24.854-69.627-32.896-46.232c-5.66 16.47-21.431 32.539-28.506 39.864 3.28-7.604 5.113-23.049 5.113-23.049s-4.39 13.161-27.054 28.515c-9.734 6.594-17.717 16.21-23.678 25.05 2.012-8.644 1.311-14.77-12.245 2.002-24.229 29.971-31.668 42.36-32.807 33.632-1.258-9.691 4.389-22.666 4.389-22.666-12.419 16.894-21.348 41.13-25.798 54.936.07 0 .142-.006.212-.006h3.924v198.566c30.713 42.15 80.311 69.649 136.45 69.649 56.8 0 106.925-28.129 137.541-71.112V194.2z"/><path d="M439.437 218.038C433.225 93.148 346.597 3.959 228.853 3.959c-120.033 0-207.689 92.673-210.837 221.382 9.235-10.175 20.496-18.442 33.208-24.11C63.68 103.458 134.548 35.368 228.853 35.368c93.343 0 163.681 66.728 177.19 162.917 12.451 4.361 23.756 11.125 33.394 19.753z"/><path d="M407.101 207.056c-9.317-3.721-19.336-6.045-29.855-6.486v182.798c48.639-2.064 87.559-42.267 87.559-91.397 0-24.289-9.538-46.382-25.047-62.774-9.062-9.602-20.206-17.172-32.657-22.141zM87.555 383.36V200.564c-13.395.567-26.002 4.116-37.305 9.854a91.938 91.938 0 0 0-28.106 22.075C8.39 248.506 0 269.245 0 291.955c0 49.139 38.922 89.349 87.555 91.405z"/></svg>