<svg xmlns="http://www.w3.org/2000/svg" xml:space="preserve" viewBox="0 0 512 512"><path d="M461.77 136.212c2.028-14.416-2.312-29.563-13.405-40.648-106.082-106.063-278.674-106.063-384.756 0-11.093 11.086-15.412 26.232-13.384 40.648C18.796 178.724 0 231.087 0 287.892v112c0 17.672 14.265 32.092 31.942 32.092H64v31.908c0 17.672 14.282 32.092 31.958 32.092h48.013c17.676 0 32.029-14.42 32.029-32.092v-128c0-17.674-14.353-31.908-32.029-31.908H95.958C78.282 303.983 64 318.218 64 335.892v-48c0-41.168 13.123-79.258 35.273-110.551 11.722-.41 23.314-4.957 32.258-13.902 68.643-68.609 180.314-68.609 248.957 0 8.944 8.945 20.52 13.492 32.242 13.902C434.88 208.634 448 246.724 448 287.892v48c0-17.674-14.282-31.908-31.958-31.908h-48.013c-17.676 0-32.029 14.234-32.029 31.908v128c0 17.672 14.353 32.092 32.029 32.092h48.013c17.676 0 31.958-14.42 31.958-32.092v-31.908h32.058c17.676 0 31.942-14.42 31.942-32.092v-112c0-56.805-18.8-109.168-50.23-151.68z"/></svg>
